<?xml version="1.0" encoding="utf-8"?>
<!-- Generator: Adobe Illustrator 19.2.1, SVG Export Plug-In . SVG Version: 6.00 Build 0)  -->
<svg version="1.1" id="Layer_1" xmlns="http://www.w3.org/2000/svg" xmlns:xlink="http://www.w3.org/1999/xlink" x="0px" y="0px"
	 viewBox="0 0 512 512" style="enable-background:new 0 0 512 512;" xml:space="preserve">
<style type="text/css">
	.st0{fill:#F44336;}
</style>
<path class="st0" d="M256,31C131.7,31,31,131.7,31,256s100.7,225,225,225s225-100.7,225-225S380.3,31,256,31z M347.5,215.3
	c0.1,1.9,0.1,3.8,0.1,5.7c0,58.6-44.6,126.1-126.1,126.1c-25,0-48.3-7.3-67.9-19.9c3.4,0.4,7,0.6,10.6,0.6c20.8,0,39.9-7.1,55-19
	c-19.4-0.4-35.7-13.2-41.4-30.7c2.7,0.5,5.5,0.8,8.3,0.8c4,0,8-0.5,11.7-1.5c-20.3-4.1-35.6-22-35.6-43.5v-0.5
	c6,3.3,12.8,5.3,20.1,5.6c-11.9-8-19.7-21.5-19.7-36.9c0-8.1,2.2-15.7,6-22.3c21.9,26.8,54.5,44.4,91.3,46.3
	c-0.8-3.3-1.1-6.6-1.1-10.1c0-24.4,19.8-44.3,44.3-44.3c12.7,0,24.3,5.4,32.3,14c10.1-2,19.6-5.7,28.1-10.8
	c-3.3,10.3-10.3,19-19.5,24.5c9-1.1,17.5-3.5,25.5-7C363.7,201.2,356.2,209.1,347.5,215.3L347.5,215.3L347.5,215.3z"/>
</svg>
